<svg width="100" height="150" viewBox="0 0 445 264" fill="none" xmlns="http://www.w3.org/2000/svg">
<path d="M130.707 143.297L108.762 136.514C91.2055 142.716 84.9488 171.722 84.015 185.45L100.357 189.326C98.1159 166.457 119.656 149.111 130.707 143.297Z" fill="black" stroke="black" stroke-width="3"/>
<path d="M175.995 157.278C182.91 165.819 189.825 204.659 175.995 226.415C172.308 233.184 216.562 197.406 175.995 157.278Z" fill="black" stroke="black" stroke-width="3"/>
<path d="M207.727 35.9552L192.732 43.2313C186.359 27.3209 162.273 20.4328 151.027 18.9776C143.06 18.9776 124.879 22.3731 115.881 35.9552C99.9491 45.6567 96.2002 78.6418 105.572 95.1343C126.191 126.179 140.249 117.933 164.616 122.784C184.11 126.664 199.605 141.54 204.916 148.493C210.226 157.547 220.192 180.119 217.568 197.97C214.288 220.284 204.447 234.351 196.481 243.082C188.515 251.813 169.302 262 153.37 262C137.437 262 115.881 253.269 105.572 243.082C95.263 232.896 88.7026 217.373 88.7026 217.858C88.7026 218.343 61.5238 211.067 35.7507 204.276C9.97769 197.485 21.2241 198.94 12.7893 197.97C6.04146 197.194 2.79249 189.562 2.01149 185.843C1.85529 183.256 3.22985 177.112 9.9777 173.231C16.7255 169.351 29.9713 174.848 35.7507 178.082L79.3306 195.06L101.823 204.276C103.073 205.731 105.572 209.903 105.572 214.948C105.572 219.993 116.819 229.985 122.442 234.351C126.659 237.585 138.281 243.858 151.027 243.082C163.772 242.306 174.769 236.938 178.674 234.351L192.732 220.284C194.919 215.109 199.574 202.821 200.698 195.06C201.823 187.299 198.355 173.716 196.481 167.896C192.888 162.236 182.704 149.366 170.708 143.157C155.713 135.396 148.684 142.672 131.814 137.336C114.944 132 110.727 125.694 105.572 122.784C101.449 120.455 94.1696 108.878 91.0456 103.381C88.3902 99.1766 82.892 87.0821 82.1422 72.3358C81.205 53.903 90.1084 38.3806 91.0456 35.9552C91.9828 33.5299 103.229 21.8881 105.572 18.9776C107.447 16.6493 117.6 10.893 122.442 8.30597L140.249 2H155.244C159.93 2.80846 169.583 4.6194 170.708 5.39552C172.114 6.36567 186.64 12.6716 189.92 14.6119C192.545 16.1642 202.885 29.4876 207.727 35.9552Z" fill="black" stroke="black" stroke-width="3"/>
<path d="M231.21 120.455V175H224.605V120.455H231.21ZM244.454 175V120.455H251.059V169.141H276.414V175H244.454ZM292.321 175H285.396L305.425 120.455H312.243L332.271 175H325.346L309.047 129.084H308.621L292.321 175ZM294.878 153.693H322.79V159.553H294.878V153.693ZM340.767 175V120.455H359.837C363.637 120.455 366.77 121.112 369.238 122.425C371.707 123.722 373.544 125.471 374.752 127.672C375.959 129.856 376.563 132.28 376.563 134.943C376.563 137.287 376.145 139.222 375.311 140.749C374.494 142.276 373.411 143.484 372.062 144.371C370.73 145.259 369.283 145.916 367.72 146.342V146.875C369.389 146.982 371.067 147.567 372.754 148.633C374.441 149.698 375.852 151.225 376.989 153.214C378.125 155.202 378.693 157.635 378.693 160.511C378.693 163.246 378.072 165.705 376.829 167.889C375.586 170.073 373.624 171.804 370.943 173.082C368.262 174.361 364.773 175 360.476 175H340.767ZM347.372 169.141H360.476C364.791 169.141 367.854 168.306 369.665 166.637C371.493 164.95 372.408 162.908 372.408 160.511C372.408 158.665 371.937 156.96 370.996 155.398C370.055 153.817 368.715 152.557 366.975 151.616C365.235 150.657 363.175 150.178 360.796 150.178H347.372V169.141ZM347.372 144.425H359.624C361.612 144.425 363.406 144.034 365.004 143.253C366.619 142.472 367.898 141.371 368.839 139.95C369.798 138.53 370.277 136.861 370.277 134.943C370.277 132.546 369.443 130.513 367.774 128.844C366.105 127.157 363.459 126.314 359.837 126.314H347.372V144.425ZM396.152 120.455V175H389.547V120.455H396.152ZM409.395 175V120.455H416V169.141H441.355V175H409.395Z" fill="black"/>
<path d="M231.21 120.455H234.21V117.455H231.21V120.455ZM231.21 175V178H234.21V175H231.21ZM224.605 175H221.605V178H224.605V175ZM224.605 120.455V117.455H221.605V120.455H224.605ZM228.21 120.455V175H234.21V120.455H228.21ZM231.21 172H224.605V178H231.21V172ZM227.605 175V120.455H221.605V175H227.605ZM224.605 123.455H231.21V117.455H224.605V123.455ZM244.454 175H241.454V178H244.454V175ZM244.454 120.455V117.455H241.454V120.455H244.454ZM251.059 120.455H254.059V117.455H251.059V120.455ZM251.059 169.141H248.059V172.141H251.059V169.141ZM276.414 169.141H279.414V166.141H276.414V169.141ZM276.414 175V178H279.414V175H276.414ZM247.454 175V120.455H241.454V175H247.454ZM244.454 123.455H251.059V117.455H244.454V123.455ZM248.059 120.455V169.141H254.059V120.455H248.059ZM251.059 172.141H276.414V166.141H251.059V172.141ZM273.414 169.141V175H279.414V169.141H273.414ZM276.414 172H244.454V178H276.414V172ZM292.321 175V178H294.439L295.148 176.004L292.321 175ZM285.396 175L282.58 173.966L281.099 178H285.396V175ZM305.425 120.455V117.455H303.33L302.608 119.42L305.425 120.455ZM312.243 120.455L315.059 119.42L314.337 117.455H312.243V120.455ZM332.271 175V178H336.569L335.087 173.966L332.271 175ZM325.346 175L322.519 176.004L323.228 178H325.346V175ZM309.047 129.084L311.874 128.08L311.165 126.084H309.047V129.084ZM308.621 129.084V126.084H306.502L305.793 128.08L308.621 129.084ZM294.878 153.693V150.693H291.878V153.693H294.878ZM322.79 153.693H325.79V150.693H322.79V153.693ZM322.79 159.553V162.553H325.79V159.553H322.79ZM294.878 159.553H291.878V162.553H294.878V159.553ZM292.321 172H285.396V178H292.321V172ZM288.212 176.034L308.241 121.489L302.608 119.42L282.58 173.966L288.212 176.034ZM305.425 123.455H312.243V117.455H305.425V123.455ZM309.427 121.489L329.455 176.034L335.087 173.966L315.059 119.42L309.427 121.489ZM332.271 172H325.346V178H332.271V172ZM328.174 173.996L311.874 128.08L306.22 130.087L322.519 176.004L328.174 173.996ZM309.047 126.084H308.621V132.084H309.047V126.084ZM305.793 128.08L289.494 173.996L295.148 176.004L311.448 130.087L305.793 128.08ZM294.878 156.693H322.79V150.693H294.878V156.693ZM319.79 153.693V159.553H325.79V153.693H319.79ZM322.79 156.553H294.878V162.553H322.79V156.553ZM297.878 159.553V153.693H291.878V159.553H297.878ZM340.767 175H337.767V178H340.767V175ZM340.767 120.455V117.455H337.767V120.455H340.767ZM369.238 122.425L367.829 125.074L367.836 125.078L367.844 125.081L369.238 122.425ZM374.752 127.672L372.121 129.115L372.126 129.124L374.752 127.672ZM375.311 140.749L372.678 139.311L372.672 139.322L372.666 139.334L375.311 140.749ZM372.062 144.371L370.413 141.865L370.405 141.87L370.398 141.875L372.062 144.371ZM367.72 146.342L366.931 143.448L364.72 144.051V146.342H367.72ZM367.72 146.875H364.72V149.69L367.529 149.869L367.72 146.875ZM372.754 148.633L371.152 151.169L371.152 151.169L372.754 148.633ZM376.829 167.889L379.436 169.373L376.829 167.889ZM370.943 173.082L369.652 170.374L370.943 173.082ZM347.372 169.141H344.372V172.141H347.372V169.141ZM369.665 166.637L371.698 168.843L371.699 168.842L369.665 166.637ZM370.996 155.398L368.419 156.933L368.423 156.939L368.426 156.946L370.996 155.398ZM366.975 151.616L365.527 154.243L365.537 154.249L365.548 154.255L366.975 151.616ZM347.372 150.178V147.178H344.372V150.178H347.372ZM347.372 144.425H344.372V147.425H347.372V144.425ZM365.004 143.253L363.698 140.552L363.686 140.558L365.004 143.253ZM368.839 139.95L366.352 138.272L366.345 138.283L366.338 138.293L368.839 139.95ZM367.774 128.844L365.641 130.954L365.647 130.96L365.652 130.965L367.774 128.844ZM347.372 126.314V123.314H344.372V126.314H347.372ZM343.767 175V120.455H337.767V175H343.767ZM340.767 123.455H359.837V117.455H340.767V123.455ZM359.837 123.455C363.313 123.455 365.922 124.059 367.829 125.074L370.648 119.777C367.619 118.164 363.96 117.455 359.837 117.455V123.455ZM367.844 125.081C369.849 126.135 371.228 127.486 372.121 129.115L377.382 126.23C375.86 123.455 373.564 121.308 370.633 119.769L367.844 125.081ZM372.126 129.124C373.071 130.833 373.563 132.752 373.563 134.943H379.563C379.563 131.807 378.847 128.879 377.377 126.221L372.126 129.124ZM373.563 134.943C373.563 136.951 373.203 138.351 372.678 139.311L377.943 142.188C379.088 140.093 379.563 137.622 379.563 134.943H373.563ZM372.666 139.334C372.067 140.453 371.314 141.272 370.413 141.865L373.71 146.878C375.508 145.695 376.921 144.1 377.956 142.164L372.666 139.334ZM370.398 141.875C369.337 142.582 368.186 143.106 366.931 143.448L368.51 149.237C370.38 148.727 372.123 147.936 373.726 146.868L370.398 141.875ZM364.72 146.342V146.875H370.72V146.342H364.72ZM367.529 149.869C368.609 149.938 369.808 150.32 371.152 151.169L374.356 146.096C372.326 144.814 370.17 144.025 367.911 143.881L367.529 149.869ZM371.152 151.169C372.366 151.936 373.455 153.076 374.384 154.702L379.594 151.725C378.25 149.374 376.516 147.46 374.356 146.096L371.152 151.169ZM374.384 154.702C375.203 156.135 375.693 158.025 375.693 160.511H381.693C381.693 157.245 381.047 154.269 379.594 151.725L374.384 154.702ZM375.693 160.511C375.693 162.773 375.185 164.713 374.222 166.405L379.436 169.373C380.959 166.697 381.693 163.719 381.693 160.511H375.693ZM374.222 166.405C373.334 167.965 371.883 169.311 369.652 170.374L372.234 175.79C375.366 174.297 377.838 172.181 379.436 169.373L374.222 166.405ZM369.652 170.374C367.513 171.394 364.511 172 360.476 172V178C365.035 178 369.011 177.327 372.234 175.79L369.652 170.374ZM360.476 172H340.767V178H360.476V172ZM347.372 172.141H360.476V166.141H347.372V172.141ZM360.476 172.141C365.026 172.141 369.043 171.289 371.698 168.843L367.632 164.431C366.664 165.323 364.555 166.141 360.476 166.141V172.141ZM371.699 168.842C374.117 166.612 375.408 163.781 375.408 160.511H369.408C369.408 162.035 368.87 163.289 367.631 164.432L371.699 168.842ZM375.408 160.511C375.408 158.126 374.792 155.886 373.566 153.85L368.426 156.946C369.082 158.035 369.408 159.203 369.408 160.511H375.408ZM373.574 153.863C372.335 151.782 370.581 150.155 368.402 148.977L365.548 154.255C366.849 154.958 367.775 155.853 368.419 156.933L373.574 153.863ZM368.422 148.988C366.159 147.741 363.581 147.178 360.796 147.178V153.178C362.768 153.178 364.31 153.573 365.527 154.243L368.422 148.988ZM360.796 147.178H347.372V153.178H360.796V147.178ZM344.372 150.178V169.141H350.372V150.178H344.372ZM347.372 147.425H359.624V141.425H347.372V147.425ZM359.624 147.425C362.015 147.425 364.267 146.952 366.321 145.948L363.686 140.558C362.545 141.116 361.21 141.425 359.624 141.425V147.425ZM366.31 145.954C368.383 144.951 370.085 143.501 371.34 141.607L366.338 138.293C365.71 139.241 364.856 139.992 363.698 140.552L366.31 145.954ZM371.326 141.629C372.658 139.655 373.277 137.385 373.277 134.943H367.277C367.277 136.336 366.938 137.405 366.352 138.272L371.326 141.629ZM373.277 134.943C373.277 131.764 372.136 128.964 369.895 126.723L365.652 130.965C366.749 132.062 367.277 133.328 367.277 134.943H373.277ZM369.906 126.734C367.437 124.239 363.846 123.314 359.837 123.314V129.314C363.072 129.314 364.772 130.076 365.641 130.954L369.906 126.734ZM359.837 123.314H347.372V129.314H359.837V123.314ZM344.372 126.314V144.425H350.372V126.314H344.372ZM396.152 120.455H399.152V117.455H396.152V120.455ZM396.152 175V178H399.152V175H396.152ZM389.547 175H386.547V178H389.547V175ZM389.547 120.455V117.455H386.547V120.455H389.547ZM393.152 120.455V175H399.152V120.455H393.152ZM396.152 172H389.547V178H396.152V172ZM392.547 175V120.455H386.547V175H392.547ZM389.547 123.455H396.152V117.455H389.547V123.455ZM409.395 175H406.395V178H409.395V175ZM409.395 120.455V117.455H406.395V120.455H409.395ZM416 120.455H419V117.455H416V120.455ZM416 169.141H413V172.141H416V169.141ZM441.355 169.141H444.355V166.141H441.355V169.141ZM441.355 175V178H444.355V175H441.355ZM412.395 175V120.455H406.395V175H412.395ZM409.395 123.455H416V117.455H409.395V123.455ZM413 120.455V169.141H419V120.455H413ZM416 172.141H441.355V166.141H416V172.141ZM438.355 169.141V175H444.355V169.141H438.355ZM441.355 172H409.395V178H441.355V172Z" fill="black"/>
</svg>
